<?xml version="1.0" standalone="no"?><!DOCTYPE svg PUBLIC "-//W3C//DTD SVG 1.1//EN" "http://www.w3.org/Graphics/SVG/1.1/DTD/svg11.dtd"><svg t="1731947302424" class="icon" viewBox="0 0 1024 1024" version="1.1" xmlns="http://www.w3.org/2000/svg" p-id="15213" xmlns:xlink="http://www.w3.org/1999/xlink" width="200" height="200"><path d="M574.301091 480.744727h-8.936727l34.210909 190.976a189.207273 189.207273 0 0 0 61.44-36.049454 316.555636 316.555636 0 0 1-45.568-74.938182l36.119272-4.677818c9.960727 20.48 21.364364 38.539636 34.21091 54.109091 26.717091-32.395636 47.243636-75.543273 61.579636-129.559273l-173.056 0.139636z m136.424727 155.066182a191.534545 191.534545 0 0 0 70.330182 38.912l16.523636 5.12-9.634909 35.141818-16.523636-5.026909a227.84 227.84 0 0 1-85.550546-48.407273 227.979636 227.979636 0 0 1-79.70909 46.49891l23.179636 128.628363H484.538182l-11.194182 84.084364h430.941091c20.247273 0 36.631273-16.384 36.631273-36.631273V260.817455c0-20.247273-16.384-36.631273-36.631273-36.631273h-384.930909l39.400727 220.066909h88.832v-36.631273h68.724364v36.631273H830.836364v36.631273h-47.755637c-15.941818 64.349091-39.982545 116.130909-72.378182 154.926545z m-271.127273 200.634182H119.831273A73.262545 73.262545 0 0 1 46.545455 763.182545V139.869091c0-40.494545 32.814545-73.262545 73.262545-73.262546H486.4l23.04 120.948364h394.752c40.494545 0 73.262545 32.814545 73.262545 73.262546V884.130909c0 40.494545-32.814545 73.262545-73.262545 73.262546H427.613091l12.008727-120.948364z m-158.650181-282.298182v-38.516364H208.523636v-56.738909h67.328v-38.167272H208.523636v-48.407273h72.448v-38.167273H166.4v219.927273h114.571636v0.069818z m177.105454 0V444.509091c0-19.968-4.538182-35.188364-13.684363-45.847273-9.146182-10.612364-22.667636-15.872-40.285091-15.872-10.379636 0-19.595636 2.048-27.694546 6.213818-8.145455 4.189091-14.778182 10.472727-19.083636 18.501819h-2.280727l-5.632-21.504h-31.744v168.261818h41.541818v-79.266909c0-19.828364 2.56-34.071273 7.749818-42.635637 5.12-8.610909 13.591273-12.869818 25.227636-12.869818 8.471273 0 14.754909 3.002182 18.571637 9.146182 3.956364 6.144 5.911273 15.127273 5.911272 27.275636v98.257455h41.378909z" fill="#3CA860" p-id="15214"></path></svg>